<svg xmlns="http://www.w3.org/2000/svg" width="22" height="22.981" viewBox="0 0 22 22.981"><defs><style>.a{fill:#fff;}</style></defs><path class="a" d="M40.363,22.351l-1.974-1.14a8.925,8.925,0,0,0,0-3.253l1.974-1.14a.56.56,0,0,0,.255-.649,11.54,11.54,0,0,0-2.534-4.383.558.558,0,0,0-.686-.107l-1.974,1.14a8.744,8.744,0,0,0-2.817-1.626V8.919a.555.555,0,0,0-.436-.542,11.648,11.648,0,0,0-5.06,0,.555.555,0,0,0-.436.542V11.2a9.02,9.02,0,0,0-2.817,1.626l-1.969-1.14a.551.551,0,0,0-.686.107,11.47,11.47,0,0,0-2.534,4.383.554.554,0,0,0,.255.649l1.974,1.14a8.925,8.925,0,0,0,0,3.253l-1.974,1.14A.56.56,0,0,0,18.67,23,11.54,11.54,0,0,0,21.2,27.388a.558.558,0,0,0,.686.107l1.974-1.14a8.744,8.744,0,0,0,2.817,1.626v2.28a.555.555,0,0,0,.436.542,11.648,11.648,0,0,0,5.06,0,.555.555,0,0,0,.436-.542v-2.28a9.02,9.02,0,0,0,2.817-1.626l1.974,1.14a.551.551,0,0,0,.686-.107A11.47,11.47,0,0,0,40.622,23,.572.572,0,0,0,40.363,22.351Zm-10.722.941a3.707,3.707,0,1,1,3.707-3.707A3.712,3.712,0,0,1,29.641,23.292Z" transform="translate(-18.644 -8.099)"/></svg>