<?xml version="1.0" encoding="utf-8"?>
<!-- Generator: Adobe Illustrator 25.0.0, SVG Export Plug-In . SVG Version: 6.00 Build 0)  -->
<svg version="1.1" xmlns="http://www.w3.org/2000/svg" xmlns:xlink="http://www.w3.org/1999/xlink" x="0px" y="0px"
	 viewBox="0 0 136 63" style="enable-background:new 0 0 136 63;" xml:space="preserve">
<style type="text/css">
	.st0{enable-background:new    ;}
	.st1{fill:#FFFFFF;}
	.st2{fill:#F9BB0E;}
</style>
<g id="Layer_1">
	<g>
		<g class="st0">
			<path class="st1" d="M29.8,42.3c-2.2,1.5-4.7,2.3-7.5,2.3c-3.6,0-6.7-1.3-9.3-3.8c-2.6-2.6-3.8-5.7-3.8-9.3
				c0-3.6,1.3-6.7,3.8-9.3c2.6-2.6,5.7-3.8,9.3-3.8s6.7,1.3,9.3,3.8c2.6,2.6,3.8,5.7,3.8,9.3v13.1c0,3.6-1.3,6.7-3.8,9.3
				c-2.6,2.6-5.7,3.8-9.3,3.8v-5.6c2.1,0,3.8-0.7,5.3-2.2s2.2-3.2,2.2-5.3V42.3z M22.3,39c2.1,0,3.8-0.7,5.3-2.2s2.2-3.2,2.2-5.3
				s-0.7-3.8-2.2-5.3S24.3,24,22.3,24c-2.1,0-3.8,0.7-5.3,2.2s-2.2,3.2-2.2,5.3s0.7,3.8,2.2,5.3S20.2,39,22.3,39z"/>
			<path class="st1" d="M41.9,16.5c-0.8,0-1.4-0.3-2-0.8c-0.5-0.5-0.8-1.2-0.8-2s0.3-1.4,0.8-2c0.5-0.5,1.2-0.8,2-0.8
				c0.8,0,1.4,0.3,2,0.8c0.5,0.5,0.8,1.2,0.8,2s-0.3,1.4-0.8,2C43.4,16.2,42.7,16.5,41.9,16.5z M44.8,18.3v26.2h-5.6V18.3H44.8z"/>
			<path class="st1" d="M54.1,44.6h-5.6V31.5c0-3.6,1.3-6.7,3.8-9.3c2.6-2.6,5.7-3.8,9.3-3.8s6.7,1.3,9.3,3.8
				c2.6,2.6,3.8,5.7,3.8,9.3v13.1h-5.6V31.5c0-2.1-0.7-3.8-2.2-5.3S63.7,24,61.6,24c-2.1,0-3.8,0.7-5.3,2.2s-2.2,3.2-2.2,5.3V44.6z"
				/>
			<path class="st1" d="M84.1,30.4l10.2-12.1h6.7L88.5,33.8L101,44.6h-7.5l-9.4-7.5v7.5h-5.6V10.8h5.6V30.4z"/>
		</g>
		<g class="st0">
			<path class="st2" d="M113.3,44.6c-3.6,0-6.7-1.3-9.3-3.8s-3.8-5.7-3.8-9.3c0-3.6,1.3-6.7,3.8-9.3s5.7-3.8,9.3-3.8
				s6.7,1.3,9.3,3.8s3.8,5.7,3.8,9.3c0,3.6-1.3,6.7-3.8,9.3S116.9,44.6,113.3,44.6z M118.6,36.8c1.5-1.5,2.2-3.2,2.2-5.3
				s-0.7-3.8-2.2-5.3s-3.2-2.2-5.3-2.2s-3.8,0.7-5.3,2.2s-2.2,3.2-2.2,5.3s0.7,3.8,2.2,5.3s3.2,2.2,5.3,2.2S117.1,38.2,118.6,36.8z"
				/>
		</g>
		<rect id="Rectangle_6" x="106.1" y="10.6" class="st2" width="16" height="4"/>
	</g>
</g>
<g id="Layer_2">
</g>
<g id="Layer_3">
</g>
</svg>
